<?xml version="1.0" standalone="no"?>
<!DOCTYPE svg PUBLIC "-//W3C//DTD SVG 20010904//EN"
 "http://www.w3.org/TR/2001/REC-SVG-20010904/DTD/svg10.dtd">
<svg version="1.0" xmlns="http://www.w3.org/2000/svg"
 width="32.000000pt" height="32.000000pt" viewBox="0 0 32.000000 32.000000"
 preserveAspectRatio="xMidYMid meet">

<g transform="translate(0.000000,32.000000) scale(0.100000,-0.100000)"
fill="#000000" stroke="none">
<path d="M85 220 l-59 -60 59 -60 c57 -58 85 -73 85 -48 0 7 -21 34 -47 60
l-47 48 47 48 c26 26 47 53 47 60 0 25 -28 10 -85 -48z"/>
<path d="M202 227 c-29 -29 -52 -59 -52 -68 0 -20 102 -119 123 -119 28 0 19
22 -30 72 l-47 48 47 48 c26 26 47 53 47 60 0 27 -39 9 -88 -41z"/>
</g>
</svg>
