<svg width="31" height="10" viewBox="0 0 31 10" fill="none" xmlns="http://www.w3.org/2000/svg">
<path d="M2.38281 4.58398L8.83789 7.05469V9.36914L0.605469 5.73633V4.20312L2.38281 4.58398ZM8.83789 2.5625L2.38281 5.07227L0.605469 5.41406V3.88086L8.83789 0.257812V2.5625ZM13.0186 4.58398L19.4737 7.05469V9.36914L11.2413 5.73633V4.20312L13.0186 4.58398ZM19.4737 2.5625L13.0186 5.07227L11.2413 5.41406V3.88086L19.4737 0.257812V2.5625ZM23.6544 4.58398L30.1095 7.05469V9.36914L21.877 5.73633V4.20312L23.6544 4.58398ZM30.1095 2.5625L23.6544 5.07227L21.877 5.41406V3.88086L30.1095 0.257812V2.5625Z" fill="black"/>
</svg>
