<svg width="66" height="65" viewBox="0 0 66 65" fill="none" xmlns="http://www.w3.org/2000/svg">
<ellipse cx="33" cy="32.5" rx="33" ry="32.5" fill="#660099"/>
<path d="M33.5 7C34.3902 7 35.2603 7.27186 36.0005 7.7812C36.7406 8.29055 37.3175 9.0145 37.6582 9.8615C37.9988 10.7085 38.0879 11.6405 37.9143 12.5397C37.7406 13.4389 37.312 14.2648 36.6825 14.9131C36.0531 15.5614 35.2511 16.0029 34.3781 16.1817C33.505 16.3606 32.6 16.2688 31.7776 15.9179C30.9552 15.5671 30.2523 14.973 29.7577 14.2107C29.2632 13.4484 28.9992 12.5522 28.9992 11.6354C28.9992 10.406 29.4734 9.22698 30.3175 8.35767C31.1615 7.48837 32.3063 7 33.5 7ZM53.2809 17.5362L39.7471 18.5885H27.2507L13.7214 17.5362C13.3078 17.5096 12.9 17.6472 12.5819 17.9207C12.2638 18.1942 12.0595 18.5829 12.0111 19.0067C11.9627 19.4306 12.0738 19.8575 12.3216 20.1996C12.5694 20.5416 12.935 20.7729 13.3433 20.8459L27.0842 23.0941C27.3121 23.1315 27.522 23.2441 27.6823 23.4151C27.8427 23.5861 27.9447 23.8061 27.9731 24.042L28.9992 32.4946L21.9443 55.8269C21.8319 56.1747 21.8408 56.5519 21.9693 56.8937C22.0979 57.2355 22.3381 57.5205 22.6486 57.6996L22.8084 57.7923C23.0029 57.904 23.218 57.9725 23.4398 57.9933C23.6616 58.014 23.8851 57.9866 24.096 57.9128C24.3068 57.8389 24.5003 57.7203 24.6638 57.5646C24.8273 57.4089 24.9573 57.2196 25.0453 57.0089L33.5 36.9307L41.9547 57.0089C42.0427 57.2196 42.1727 57.4089 42.3362 57.5646C42.4997 57.7203 42.6932 57.8389 42.904 57.9128C43.1149 57.9866 43.3384 58.014 43.5602 57.9933C43.782 57.9725 43.9971 57.904 44.1916 57.7923L44.3491 57.6996C44.66 57.5208 44.9007 57.236 45.0297 56.8942C45.1587 56.5524 45.1679 56.1749 45.0557 55.8269L38.0008 32.4946L39.0269 24.042C39.0553 23.8061 39.1573 23.5861 39.3177 23.4151C39.478 23.2441 39.6879 23.1315 39.9158 23.0941L53.6567 20.8459C54.065 20.7729 54.4306 20.5416 54.6784 20.1996C54.9262 19.8575 55.0373 19.4306 54.9889 19.0067C54.9405 18.5829 54.7362 18.1942 54.4181 17.9207C54.1 17.6472 53.6922 17.5096 53.2786 17.5362H53.2809Z" fill="white"/>
</svg>
